<svg width="363" height="69" viewBox="0 0 363 69" fill="none" xmlns="http://www.w3.org/2000/svg">
<path d="M122.946 3.48915C122.843 4.81029 122.765 6.07962 122.713 7.29714C122.687 8.51467 122.674 9.44724 122.674 10.0949C122.674 10.6648 122.687 11.2088 122.713 11.7269C122.739 12.245 122.765 12.6853 122.791 13.048H121.897C121.483 10.872 120.952 9.14933 120.304 7.88C119.682 6.61067 118.931 5.71695 118.05 5.19886C117.17 4.65486 116.133 4.38286 114.942 4.38286H114.048V26.5703C114.048 27.6065 114.152 28.3836 114.359 28.9017C114.592 29.4198 115.006 29.7695 115.602 29.9509C116.198 30.1063 117.066 30.197 118.206 30.2229V31C117.403 30.9741 116.328 30.9482 114.981 30.9223C113.659 30.8964 112.274 30.8834 110.823 30.8834C109.398 30.8834 108.051 30.8964 106.782 30.9223C105.512 30.9482 104.489 30.9741 103.712 31V30.2229C104.878 30.197 105.758 30.1063 106.354 29.9509C106.95 29.7695 107.352 29.4198 107.559 28.9017C107.766 28.3836 107.87 27.6065 107.87 26.5703V4.38286H107.015C105.823 4.38286 104.787 4.65486 103.906 5.19886C103.026 5.71695 102.274 6.61067 101.653 7.88C101.031 9.12343 100.487 10.8461 100.021 13.048H99.1269C99.1787 12.6853 99.2046 12.245 99.2046 11.7269C99.2305 11.2088 99.2434 10.6648 99.2434 10.0949C99.2434 9.44724 99.2175 8.51467 99.1657 7.29714C99.1398 6.07962 99.075 4.81029 98.9714 3.48915C100.163 3.51505 101.458 3.54095 102.857 3.56686C104.282 3.59276 105.707 3.60571 107.131 3.60571C108.556 3.60571 109.838 3.60571 110.978 3.60571C112.144 3.60571 113.426 3.60571 114.825 3.60571C116.25 3.60571 117.675 3.59276 119.099 3.56686C120.524 3.54095 121.806 3.51505 122.946 3.48915ZM137.15 2.984C138.678 2.984 139.857 3.15238 140.686 3.48915C141.514 3.8 142.227 4.13676 142.823 4.49943C143.134 4.68076 143.38 4.82324 143.561 4.92686C143.768 5.00457 143.962 5.04343 144.144 5.04343C144.403 5.04343 144.584 4.90095 144.688 4.616C144.817 4.33105 144.921 3.90362 144.999 3.33372H145.892C145.866 3.82591 145.828 4.42172 145.776 5.12114C145.75 5.79467 145.724 6.68838 145.698 7.80229C145.698 8.91619 145.698 10.3798 145.698 12.1931H144.804C144.701 10.8461 144.39 9.53791 143.872 8.26857C143.354 6.99924 142.615 5.96305 141.657 5.16C140.724 4.33105 139.572 3.91657 138.199 3.91657C136.955 3.91657 135.932 4.26629 135.129 4.96572C134.326 5.66514 133.924 6.63657 133.924 7.88C133.924 8.91619 134.183 9.80991 134.702 10.5611C135.22 11.2865 135.971 11.9989 136.955 12.6983C137.966 13.3977 139.183 14.2396 140.608 15.224C141.851 16.027 142.965 16.8301 143.95 17.6331C144.934 18.4362 145.724 19.3429 146.32 20.3531C146.916 21.3634 147.214 22.568 147.214 23.9669C147.214 25.6766 146.76 27.0884 145.854 28.2023C144.973 29.3162 143.807 30.1581 142.356 30.728C140.906 31.272 139.313 31.544 137.577 31.544C135.971 31.544 134.689 31.3886 133.73 31.0777C132.772 30.7669 131.969 30.443 131.321 30.1063C130.751 29.7436 130.311 29.5623 130 29.5623C129.741 29.5623 129.546 29.7048 129.417 29.9897C129.313 30.2747 129.223 30.7021 129.145 31.272H128.251C128.303 30.6503 128.329 29.925 128.329 29.096C128.355 28.267 128.368 27.192 128.368 25.8709C128.394 24.5238 128.407 22.827 128.407 20.7806H129.3C129.404 22.4903 129.689 24.0964 130.155 25.5989C130.647 27.0754 131.386 28.267 132.37 29.1737C133.38 30.0804 134.714 30.5337 136.372 30.5337C137.279 30.5337 138.082 30.3783 138.782 30.0674C139.507 29.7307 140.09 29.2385 140.53 28.5909C140.97 27.9432 141.191 27.1402 141.191 26.1817C141.191 25.0937 140.932 24.1482 140.414 23.3451C139.921 22.5421 139.235 21.7909 138.354 21.0914C137.499 20.392 136.502 19.6796 135.362 18.9543C134.145 18.1512 133.005 17.3482 131.943 16.5451C130.881 15.7421 130.026 14.8225 129.378 13.7863C128.756 12.7501 128.446 11.5196 128.446 10.0949C128.446 8.46286 128.847 7.12876 129.65 6.09257C130.479 5.03048 131.554 4.25333 132.875 3.76114C134.222 3.24305 135.647 2.984 137.15 2.984ZM174.974 3.41143L184.417 27.736C184.779 28.6686 185.181 29.3162 185.621 29.6789C186.087 30.0156 186.502 30.197 186.865 30.2229V31C186.087 30.9482 185.168 30.9223 184.106 30.9223C183.07 30.8964 182.02 30.8834 180.958 30.8834C179.767 30.8834 178.64 30.8964 177.578 30.9223C176.516 30.9223 175.674 30.9482 175.052 31V30.2229C176.373 30.171 177.202 29.9509 177.539 29.5623C177.902 29.1478 177.824 28.28 177.306 26.9589L170.7 8.89029L171.399 7.88L165.493 23.2674C164.923 24.6922 164.574 25.8579 164.444 26.7646C164.34 27.6712 164.405 28.3707 164.638 28.8629C164.897 29.355 165.299 29.7048 165.843 29.912C166.413 30.0933 167.086 30.197 167.863 30.2229V31C167.009 30.9482 166.193 30.9223 165.415 30.9223C164.638 30.8964 163.848 30.8834 163.045 30.8834C162.475 30.8834 161.931 30.8964 161.413 30.9223C160.921 30.9223 160.481 30.9482 160.092 31V30.2229C160.636 30.1192 161.193 29.7695 161.763 29.1737C162.333 28.5779 162.89 27.5676 163.434 26.1429L172.293 3.41143C172.708 3.43733 173.148 3.45029 173.614 3.45029C174.106 3.45029 174.56 3.43733 174.974 3.41143ZM177.694 19.8091V20.5863H166.115L166.503 19.8091H177.694ZM203.05 10.3669C203.879 10.3669 204.553 10.5482 205.071 10.9109C205.589 11.2476 205.965 11.688 206.198 12.232C206.457 12.776 206.586 13.3459 206.586 13.9417C206.586 14.9002 206.301 15.6903 205.732 16.312C205.188 16.9078 204.462 17.2057 203.556 17.2057C202.649 17.2057 201.937 16.9855 201.418 16.5451C200.926 16.0789 200.68 15.4701 200.68 14.7189C200.68 13.9935 200.836 13.3977 201.146 12.9314C201.483 12.4392 201.898 12.0248 202.39 11.688C202.027 11.5844 201.665 11.5973 201.302 11.7269C200.81 11.8046 200.343 12.0118 199.903 12.3486C199.463 12.6594 199.087 13.061 198.776 13.5531C198.465 14.0194 198.219 14.5375 198.038 15.1074C197.857 15.6514 197.766 16.1825 197.766 16.7006V26.9977C197.766 28.2411 198.064 29.083 198.66 29.5234C199.281 29.9638 200.201 30.184 201.418 30.184V31C200.823 30.9741 199.955 30.9482 198.815 30.9223C197.675 30.8705 196.484 30.8446 195.24 30.8446C194.204 30.8446 193.155 30.8705 192.093 30.9223C191.031 30.9482 190.228 30.9741 189.684 31V30.184C190.59 30.184 191.225 29.9897 191.588 29.6011C191.976 29.2126 192.17 28.4743 192.17 27.3863V15.1463C192.17 13.9806 191.989 13.1257 191.626 12.5817C191.29 12.0118 190.642 11.7269 189.684 11.7269V10.9109C190.513 10.9886 191.316 11.0274 192.093 11.0274C193.181 11.0274 194.191 10.9886 195.124 10.9109C196.082 10.8072 196.963 10.6648 197.766 10.4834V14.0971C198.077 13.3977 198.491 12.763 199.009 12.1931C199.527 11.6232 200.123 11.1829 200.797 10.872C201.47 10.5352 202.221 10.3669 203.05 10.3669ZM219.475 10.3669C221.366 10.3669 223.024 10.7166 224.448 11.416C225.873 12.1154 226.987 13.2423 227.79 14.7966C228.593 16.3509 228.995 18.4103 228.995 20.9749C228.995 23.5394 228.593 25.5989 227.79 27.1531C226.987 28.6815 225.873 29.7954 224.448 30.4949C223.024 31.1943 221.366 31.544 219.475 31.544C217.635 31.544 215.99 31.1943 214.54 30.4949C213.115 29.7954 211.988 28.6815 211.159 27.1531C210.356 25.5989 209.955 23.5394 209.955 20.9749C209.955 18.4103 210.356 16.3509 211.159 14.7966C211.988 13.2423 213.115 12.1154 214.54 11.416C215.99 10.7166 217.635 10.3669 219.475 10.3669ZM219.475 11.144C218.438 11.144 217.571 11.9211 216.871 13.4754C216.172 15.0038 215.822 17.5036 215.822 20.9749C215.822 24.4461 216.172 26.9459 216.871 28.4743C217.571 30.0027 218.438 30.7669 219.475 30.7669C220.537 30.7669 221.404 30.0027 222.078 28.4743C222.777 26.9459 223.127 24.4461 223.127 20.9749C223.127 17.5036 222.777 15.0038 222.078 13.4754C221.404 11.9211 220.537 11.144 219.475 11.144ZM247.684 10.3669C248.772 10.3669 249.653 10.5093 250.327 10.7943C251 11.0533 251.544 11.416 251.959 11.8823C252.373 12.3745 252.671 13.0221 252.852 13.8251C253.034 14.6023 253.124 15.6385 253.124 16.9337V27.3863C253.124 28.4743 253.293 29.2126 253.629 29.6011C253.966 29.9897 254.549 30.184 255.378 30.184V31C254.912 30.9741 254.199 30.9482 253.241 30.9223C252.308 30.8705 251.389 30.8446 250.482 30.8446C249.549 30.8446 248.63 30.8705 247.723 30.9223C246.816 30.9482 246.13 30.9741 245.664 31V30.184C246.363 30.184 246.842 29.9897 247.101 29.6011C247.386 29.2126 247.529 28.4743 247.529 27.3863V15.3017C247.529 14.6541 247.477 14.0971 247.373 13.6309C247.27 13.1387 247.063 12.763 246.752 12.504C246.467 12.219 246.026 12.0766 245.431 12.0766C244.757 12.0766 244.135 12.2709 243.565 12.6594C242.996 13.048 242.529 13.592 242.167 14.2914C241.83 14.965 241.661 15.7291 241.661 16.584V27.3863C241.661 28.4743 241.804 29.2126 242.089 29.6011C242.374 29.9897 242.853 30.184 243.527 30.184V31C243.112 30.9741 242.464 30.9482 241.584 30.9223C240.729 30.8705 239.848 30.8446 238.941 30.8446C237.957 30.8446 236.947 30.8705 235.911 30.9223C234.874 30.9482 234.097 30.9741 233.579 31V30.184C234.486 30.184 235.12 29.9897 235.483 29.6011C235.872 29.2126 236.066 28.4743 236.066 27.3863V15.1463C236.066 13.9806 235.885 13.1257 235.522 12.5817C235.185 12.0118 234.538 11.7269 233.579 11.7269V10.9109C234.408 10.9886 235.211 11.0274 235.988 11.0274C237.076 11.0274 238.087 10.9886 239.019 10.9109C239.978 10.8072 240.858 10.6648 241.661 10.4834V13.9806C242.283 12.6853 243.125 11.7657 244.187 11.2217C245.249 10.6518 246.415 10.3669 247.684 10.3669ZM259.38 10.3669C260.468 10.3669 261.349 10.5093 262.023 10.7943C262.696 11.0533 263.24 11.416 263.655 11.8823C264.069 12.3745 264.367 13.0221 264.548 13.8251C264.73 14.6023 264.82 15.6385 264.82 16.9337V27.3863C264.82 28.4743 265.002 29.2126 265.364 29.6011C265.753 29.9897 266.4 30.184 267.307 30.184V31C266.815 30.9741 266.077 30.9482 265.092 30.9223C264.108 30.8705 263.136 30.8446 262.178 30.8446C261.245 30.8446 260.326 30.8705 259.419 30.9223C258.512 30.9482 257.826 30.9741 257.36 31V30.184C258.059 30.184 258.538 29.9897 258.797 29.6011C259.082 29.2126 259.225 28.4743 259.225 27.3863V15.3017C259.225 14.6541 259.16 14.0971 259.031 13.6309C258.927 13.1387 258.707 12.763 258.37 12.504C258.059 12.219 257.567 12.0766 256.893 12.0766C256.22 12.0766 255.598 12.2838 255.028 12.6983C254.458 13.1128 253.992 13.6697 253.629 14.3691C253.293 15.0686 253.111 15.8457 253.085 16.7006L252.891 14.3303C253.591 12.776 254.51 11.7269 255.65 11.1829C256.816 10.6389 258.059 10.3669 259.38 10.3669ZM276.276 31.272C275.111 31.272 274.139 31.0518 273.362 30.6114C272.585 30.171 272.015 29.5882 271.652 28.8629C271.29 28.1116 271.108 27.2956 271.108 26.4149C271.108 25.301 271.355 24.3943 271.847 23.6949C272.365 22.9954 273.025 22.4255 273.828 21.9851C274.632 21.5448 275.473 21.1821 276.354 20.8971C277.261 20.6122 278.116 20.3402 278.919 20.0811C279.748 19.7962 280.408 19.4724 280.9 19.1097C281.419 18.7211 281.678 18.229 281.678 17.6331V14.6023C281.678 13.9288 281.561 13.333 281.328 12.8149C281.121 12.2709 280.784 11.8564 280.318 11.5714C279.877 11.2865 279.294 11.144 278.569 11.144C278.051 11.144 277.533 11.2217 277.015 11.3771C276.497 11.5067 276.069 11.7398 275.732 12.0766C276.458 12.3356 277.015 12.7371 277.403 13.2811C277.818 13.7992 278.025 14.395 278.025 15.0686C278.025 15.9493 277.714 16.6488 277.092 17.1669C276.497 17.685 275.784 17.944 274.955 17.944C274.023 17.944 273.31 17.659 272.818 17.0891C272.352 16.4933 272.119 15.781 272.119 14.952C272.119 14.2008 272.3 13.579 272.663 13.0869C273.051 12.5947 273.582 12.1284 274.256 11.688C274.981 11.2735 275.849 10.9497 276.859 10.7166C277.896 10.4834 279.009 10.3669 280.201 10.3669C281.393 10.3669 282.468 10.4964 283.426 10.7554C284.385 10.9886 285.188 11.429 285.835 12.0766C286.431 12.6724 286.82 13.4107 287.001 14.2914C287.182 15.1463 287.273 16.2343 287.273 17.5554V28.1246C287.273 28.7722 287.338 29.2255 287.467 29.4846C287.597 29.7177 287.817 29.8343 288.128 29.8343C288.361 29.8343 288.581 29.7695 288.788 29.64C289.022 29.5105 289.268 29.355 289.527 29.1737L289.915 29.8343C289.371 30.3006 288.737 30.6632 288.011 30.9223C287.312 31.1554 286.522 31.272 285.641 31.272C284.683 31.272 283.918 31.1425 283.348 30.8834C282.779 30.5985 282.364 30.2229 282.105 29.7566C281.872 29.2903 281.755 28.7463 281.755 28.1246C281.134 29.109 280.382 29.8861 279.502 30.456C278.621 31 277.546 31.272 276.276 31.272ZM279.035 28.7851C279.553 28.7851 280.02 28.6686 280.434 28.4354C280.875 28.1764 281.289 27.7619 281.678 27.192V19.2263C281.444 19.6149 281.121 19.9646 280.706 20.2754C280.292 20.5863 279.851 20.9101 279.385 21.2469C278.919 21.5577 278.465 21.9074 278.025 22.296C277.611 22.6846 277.274 23.1638 277.015 23.7337C276.756 24.3036 276.626 24.9901 276.626 25.7931C276.626 26.8034 276.846 27.5547 277.287 28.0469C277.727 28.539 278.31 28.7851 279.035 28.7851ZM301.073 4.53829V10.9109H305.658V11.688H301.073V27.3863C301.073 28.1634 301.215 28.7204 301.5 29.0571C301.785 29.368 302.212 29.5234 302.782 29.5234C303.249 29.5234 303.715 29.355 304.181 29.0183C304.647 28.6556 305.062 28.0469 305.425 27.192L306.085 27.5417C305.671 28.7074 305.036 29.6659 304.181 30.4171C303.352 31.1684 302.212 31.544 300.762 31.544C299.907 31.544 299.156 31.4274 298.508 31.1943C297.86 30.987 297.316 30.6632 296.876 30.2229C296.306 29.653 295.93 28.9535 295.749 28.1246C295.568 27.2697 295.477 26.1688 295.477 24.8217V11.688H292.213V10.9109H295.477V5.78171C296.565 5.78171 297.562 5.69105 298.469 5.50972C299.402 5.30248 300.269 4.97867 301.073 4.53829ZM314.055 0.885715C315.143 0.885715 315.998 1.15772 316.62 1.70172C317.268 2.21981 317.591 2.94514 317.591 3.87772C317.591 4.81029 317.268 5.54857 316.62 6.09257C315.998 6.61067 315.143 6.86971 314.055 6.86971C312.967 6.86971 312.1 6.61067 311.452 6.09257C310.83 5.54857 310.519 4.81029 310.519 3.87772C310.519 2.94514 310.83 2.21981 311.452 1.70172C312.1 1.15772 312.967 0.885715 314.055 0.885715ZM317.086 10.4834V27.3863C317.086 28.4743 317.268 29.2126 317.63 29.6011C318.019 29.9897 318.666 30.184 319.573 30.184V31C319.107 30.9741 318.382 30.9482 317.397 30.9223C316.413 30.8705 315.415 30.8446 314.405 30.8446C313.395 30.8446 312.372 30.8705 311.335 30.9223C310.299 30.9482 309.522 30.9741 309.004 31V30.184C309.911 30.184 310.545 29.9897 310.908 29.6011C311.297 29.2126 311.491 28.4743 311.491 27.3863V15.1463C311.491 13.9806 311.31 13.1257 310.947 12.5817C310.61 12.0118 309.962 11.7269 309.004 11.7269V10.9109C309.833 10.9886 310.636 11.0274 311.413 11.0274C312.501 11.0274 313.511 10.9886 314.444 10.9109C315.402 10.8072 316.283 10.6648 317.086 10.4834ZM333.522 10.3669C334.533 10.3669 335.452 10.4834 336.281 10.7166C337.136 10.9238 337.835 11.1958 338.379 11.5326C339.053 11.947 339.571 12.4651 339.934 13.0869C340.322 13.6827 340.517 14.3821 340.517 15.1851C340.517 16.0918 340.232 16.843 339.662 17.4389C339.092 18.0088 338.353 18.2937 337.447 18.2937C336.54 18.2937 335.815 18.0347 335.271 17.5166C334.727 16.9985 334.455 16.299 334.455 15.4183C334.455 14.5893 334.714 13.9029 335.232 13.3589C335.75 12.789 336.346 12.4133 337.019 12.232C336.812 11.973 336.501 11.7528 336.087 11.5714C335.672 11.3901 335.206 11.2994 334.688 11.2994C333.885 11.2994 333.173 11.5326 332.551 11.9989C331.955 12.4651 331.45 13.1128 331.035 13.9417C330.621 14.7707 330.297 15.7421 330.064 16.856C329.857 17.9699 329.753 19.1874 329.753 20.5086C329.753 22.5032 329.999 24.0705 330.491 25.2103C331.009 26.3501 331.657 27.1531 332.434 27.6194C333.237 28.0857 334.066 28.3189 334.921 28.3189C335.413 28.3189 335.944 28.2411 336.514 28.0857C337.11 27.9303 337.706 27.6194 338.302 27.1531C338.923 26.6869 339.493 26.0263 340.011 25.1714L340.672 25.4046C340.387 26.363 339.921 27.3215 339.273 28.28C338.625 29.2385 337.784 30.0286 336.747 30.6503C335.711 31.2461 334.442 31.544 332.939 31.544C331.256 31.544 329.727 31.1813 328.354 30.456C327.007 29.7048 325.919 28.565 325.09 27.0366C324.287 25.4823 323.886 23.4876 323.886 21.0526C323.886 18.7211 324.3 16.7653 325.129 15.1851C325.984 13.579 327.137 12.3745 328.587 11.5714C330.038 10.7684 331.683 10.3669 333.522 10.3669ZM352.549 10.3669C353.637 10.3669 354.582 10.5093 355.385 10.7943C356.214 11.0533 356.81 11.3124 357.173 11.5714C358.053 12.1672 358.597 11.7787 358.805 10.4057H359.621C359.569 11.131 359.53 12.0248 359.504 13.0869C359.478 14.123 359.465 15.509 359.465 17.2446H358.649C358.52 16.2861 358.274 15.3406 357.911 14.408C357.548 13.4754 357.017 12.7112 356.318 12.1154C355.644 11.5196 354.763 11.2217 353.675 11.2217C352.924 11.2217 352.29 11.4419 351.771 11.8823C351.253 12.2968 350.994 12.9055 350.994 13.7086C350.994 14.4857 351.227 15.1722 351.694 15.768C352.16 16.3379 352.756 16.8949 353.481 17.4389C354.232 17.957 355.01 18.5139 355.813 19.1097C356.667 19.7573 357.445 20.405 358.144 21.0526C358.843 21.6743 359.4 22.3608 359.815 23.112C360.229 23.8632 360.437 24.757 360.437 25.7931C360.437 26.9589 360.1 27.9821 359.426 28.8629C358.753 29.7177 357.859 30.3783 356.745 30.8446C355.657 31.3109 354.44 31.544 353.093 31.544C352.315 31.544 351.616 31.4663 350.994 31.3109C350.399 31.1554 349.88 30.9611 349.44 30.728C349.103 30.5726 348.779 30.4301 348.469 30.3006C348.184 30.1451 347.912 30.0156 347.653 29.912C347.394 29.8343 347.16 29.925 346.953 30.184C346.772 30.443 346.629 30.8057 346.526 31.272H345.71C345.762 30.443 345.8 29.4328 345.826 28.2411C345.852 27.0495 345.865 25.4693 345.865 23.5006H346.681C346.837 24.8994 347.122 26.1429 347.536 27.2309C347.951 28.293 348.507 29.1349 349.207 29.7566C349.932 30.3524 350.839 30.6503 351.927 30.6503C352.367 30.6503 352.795 30.5596 353.209 30.3783C353.624 30.197 353.96 29.899 354.219 29.4846C354.504 29.0701 354.647 28.539 354.647 27.8914C354.647 26.7516 354.271 25.8061 353.52 25.0549C352.795 24.3036 351.862 23.4876 350.722 22.6069C349.893 21.9333 349.103 21.2728 348.352 20.6251C347.627 19.9516 347.031 19.2263 346.565 18.4491C346.098 17.6461 345.865 16.7394 345.865 15.7291C345.865 14.5634 346.176 13.579 346.798 12.776C347.419 11.973 348.235 11.3771 349.246 10.9886C350.282 10.5741 351.383 10.3669 352.549 10.3669Z" fill="url(#paint0_linear_25_124)"/>
<path d="M158.854 54.9375H155.244L154.579 56.7778H153.439L156.431 48.5498H157.678L160.658 56.7778H159.518L158.854 54.9375ZM158.545 54.0589L157.049 49.8796L155.553 54.0589H158.545ZM170.525 55.8992H173.422V56.7778H169.445V48.5023H170.525V55.8992ZM177.809 49.3809V52.1474H180.825V53.0378H177.809V55.8874H181.181V56.7778H176.729V48.4905H181.181V49.3809H177.809ZM191.244 50.9007C191.014 50.4179 190.682 50.0458 190.246 49.7846C189.811 49.5155 189.304 49.3809 188.726 49.3809C188.149 49.3809 187.626 49.5155 187.159 49.7846C186.7 50.0458 186.336 50.4258 186.067 50.9244C185.806 51.4152 185.675 51.9851 185.675 52.6341C185.675 53.2832 185.806 53.8531 186.067 54.3439C186.336 54.8346 186.7 55.2146 187.159 55.4837C187.626 55.7449 188.149 55.8755 188.726 55.8755C189.534 55.8755 190.199 55.6341 190.721 55.1512C191.244 54.6684 191.548 54.0154 191.635 53.1922H188.335V52.3136H192.787V53.1447C192.724 53.8254 192.51 54.4507 192.146 55.0206C191.782 55.5826 191.303 56.0298 190.709 56.3623C190.116 56.6868 189.455 56.8491 188.726 56.8491C187.959 56.8491 187.258 56.671 186.625 56.3148C185.992 55.9507 185.489 55.4481 185.117 54.8069C184.753 54.1658 184.571 53.4415 184.571 52.6341C184.571 51.8268 184.753 51.1025 185.117 50.4614C185.489 49.8123 185.992 49.3097 186.625 48.9535C187.258 48.5894 187.959 48.4074 188.726 48.4074C189.605 48.4074 190.381 48.625 191.054 49.0604C191.734 49.4957 192.229 50.1092 192.538 50.9007H191.244ZM201.266 54.9375H197.657L196.992 56.7778H195.852L198.844 48.5498H200.091L203.071 56.7778H201.931L201.266 54.9375ZM200.957 54.0589L199.461 49.8796L197.965 54.0589H200.957ZM206.13 52.6341C206.13 51.8268 206.312 51.1025 206.676 50.4614C207.04 49.8123 207.535 49.3057 208.16 48.9416C208.793 48.5775 209.494 48.3955 210.262 48.3955C211.164 48.3955 211.951 48.6132 212.624 49.0485C213.297 49.4838 213.788 50.1012 214.097 50.9007H212.802C212.573 50.402 212.24 50.0181 211.805 49.749C211.378 49.4799 210.863 49.3453 210.262 49.3453C209.684 49.3453 209.165 49.4799 208.706 49.749C208.247 50.0181 207.887 50.402 207.626 50.9007C207.365 51.3914 207.234 51.9693 207.234 52.6341C207.234 53.2911 207.365 53.8689 207.626 54.3676C207.887 54.8584 208.247 55.2383 208.706 55.5074C209.165 55.7765 209.684 55.9111 210.262 55.9111C210.863 55.9111 211.378 55.7805 211.805 55.5193C212.24 55.2502 212.573 54.8663 212.802 54.3676H214.097C213.788 55.1591 213.297 55.7726 212.624 56.2079C211.951 56.6354 211.164 56.8491 210.262 56.8491C209.494 56.8491 208.793 56.671 208.16 56.3148C207.535 55.9507 207.04 55.4481 206.676 54.8069C206.312 54.1658 206.13 53.4415 206.13 52.6341ZM223.658 48.5023L220.962 53.6552V56.7778H219.882V53.6552L217.175 48.5023H218.374L220.416 52.6935L222.458 48.5023H223.658ZM236.032 56.8609C235.264 56.8609 234.564 56.6828 233.93 56.3267C233.297 55.9626 232.795 55.4599 232.423 54.8188C232.058 54.1697 231.876 53.4415 231.876 52.6341C231.876 51.8268 232.058 51.1025 232.423 50.4614C232.795 49.8123 233.297 49.3097 233.93 48.9535C234.564 48.5894 235.264 48.4074 236.032 48.4074C236.808 48.4074 237.512 48.5894 238.145 48.9535C238.779 49.3097 239.277 49.8084 239.641 50.4495C240.005 51.0907 240.188 51.8189 240.188 52.6341C240.188 53.4494 240.005 54.1776 239.641 54.8188C239.277 55.4599 238.779 55.9626 238.145 56.3267C237.512 56.6828 236.808 56.8609 236.032 56.8609ZM236.032 55.923C236.61 55.923 237.128 55.7884 237.587 55.5193C238.054 55.2502 238.418 54.8663 238.68 54.3676C238.949 53.8689 239.083 53.2911 239.083 52.6341C239.083 51.9693 238.949 51.3914 238.68 50.9007C238.418 50.402 238.058 50.0181 237.599 49.749C237.14 49.4799 236.618 49.3453 236.032 49.3453C235.446 49.3453 234.924 49.4799 234.465 49.749C234.006 50.0181 233.642 50.402 233.372 50.9007C233.111 51.3914 232.981 51.9693 232.981 52.6341C232.981 53.2911 233.111 53.8689 233.372 54.3676C233.642 54.8663 234.006 55.2502 234.465 55.5193C234.932 55.7884 235.454 55.923 236.032 55.923ZM248.451 48.5023V49.3809H244.853V52.1711H247.774V53.0497H244.853V56.7778H243.773V48.5023H248.451ZM262.771 50.9244C262.771 51.6131 262.534 52.1869 262.059 52.646C261.592 53.0972 260.875 53.3228 259.91 53.3228H258.319V56.7778H257.238V48.5023H259.91C260.844 48.5023 261.552 48.7279 262.035 49.1791C262.526 49.6303 262.771 50.2121 262.771 50.9244ZM259.91 52.4323C260.511 52.4323 260.955 52.3017 261.24 52.0405C261.524 51.7793 261.667 51.4073 261.667 50.9244C261.667 49.9034 261.081 49.3928 259.91 49.3928H258.319V52.4323H259.91ZM267.329 48.5023V53.7383C267.329 54.4745 267.508 55.0206 267.864 55.3768C268.228 55.733 268.73 55.9111 269.372 55.9111C270.005 55.9111 270.5 55.733 270.856 55.3768C271.22 55.0206 271.402 54.4745 271.402 53.7383V48.5023H272.482V53.7265C272.482 54.4151 272.344 54.9969 272.067 55.4718C271.79 55.9388 271.414 56.2871 270.939 56.5166C270.472 56.7462 269.945 56.8609 269.36 56.8609C268.774 56.8609 268.244 56.7462 267.769 56.5166C267.302 56.2871 266.93 55.9388 266.653 55.4718C266.384 54.9969 266.249 54.4151 266.249 53.7265V48.5023H267.329ZM280.801 56.7778L278.83 53.394H277.524V56.7778H276.443V48.5023H279.115C279.74 48.5023 280.267 48.6092 280.694 48.8229C281.129 49.0366 281.454 49.3255 281.668 49.6896C281.881 50.0537 281.988 50.4693 281.988 50.9363C281.988 51.5062 281.822 52.0088 281.489 52.4442C281.165 52.8795 280.674 53.1684 280.017 53.3109L282.095 56.7778H280.801ZM277.524 52.5273H279.115C279.701 52.5273 280.14 52.3848 280.433 52.0999C280.726 51.807 280.872 51.4191 280.872 50.9363C280.872 50.4456 280.726 50.0656 280.433 49.7965C280.148 49.5274 279.708 49.3928 279.115 49.3928H277.524V52.5273ZM286.906 48.5023V56.7778H285.826V48.5023H286.906ZM296 48.5023V49.3809H293.744V56.7778H292.663V49.3809H290.396V48.5023H296ZM305.283 48.5023L302.587 53.6552V56.7778H301.507V53.6552L298.8 48.5023H299.999L302.041 52.6935L304.083 48.5023H305.283Z" fill="url(#paint1_linear_25_124)"/>
<rect x="98" y="50.7305" width="39.9365" height="4.31746" fill="url(#paint2_linear_25_124)"/>
<rect x="322.508" y="50.7305" width="39.9365" height="4.31746" fill="url(#paint3_linear_25_124)"/>
<path d="M34.951 16.3906L31.2112 15.3749C31.0265 15.5596 30.794 16.2601 30.6571 16.8985C30.4197 18.0066 30.4263 19.0685 30.611 20.6845C30.9803 22.9315 32.4839 27.3365 37.8597 30.9805C44.7392 35.6438 47.8154 38.002 49.9103 41.7845C51.5724 44.7855 51.2099 50.1763 49.1254 53.2809C46.9553 56.5129 42.5691 57.3321 42.1536 57.3901C40.63 57.6027 37.1888 57.8449 33.5659 55.8203C30.4263 54.0658 28.718 52.0343 28.2563 51.2494C29.6876 52.0343 32.9657 54.0658 35.7821 54.9431C38.4422 55.7716 41.1071 55.4971 41.9689 55.3586C41.5996 55.2201 40.3991 54.7122 39.5219 53.835C38.1581 52.4712 35.6976 49.2882 33.335 47.9251C30.9342 46.54 26.9635 45.7551 24.3779 45.9398C21.0621 46.1767 17.4062 47.7866 16.2981 48.8024L16.3094 48.8035C16.644 48.8369 18.2593 48.9978 20.1303 49.9105C23.8216 51.7111 26.1324 55.8203 30.4725 59.0061C34.2987 61.8147 39.472 62.775 44.5083 61.4531C48.9199 60.2952 51.1521 57.5878 53.6501 53.6503C56.3741 49.3564 56.328 47.6019 59.5599 44.7855C62.9221 41.8556 66.3932 40.7071 67.6398 40.5379C69.7174 44.7855 73.6298 50.4135 77.4741 51.942C81.3062 53.4656 83.6148 52.5884 84.9999 51.942C84.0765 51.5726 81.0212 50.6471 78.3513 47.6481C74.9809 43.8621 73.3649 40.4917 72.5338 38.5525C74.0267 38.0293 77.8158 36.244 80.2905 32.9197C82.7652 29.5954 83.1992 23.9011 83.0146 21.5618C82.1835 22.6237 80.725 23.5718 80.2905 23.8241C78.8592 24.6552 77.982 25.0903 74.6577 26.502C71.9613 27.647 70.3638 30.4881 69.9021 31.7654C69.6251 30.9652 68.794 27.8409 67.6859 21.7464C66.5778 15.6519 69.1018 11.0503 70.5023 9.51123C68.1015 9.51123 66.8087 10.0191 64.9619 11.1272C61.0949 13.4474 57.7593 18.5145 55.6816 22.0235C53.6039 25.5324 50.6028 32.1348 50.6028 32.1348C50.8798 32.4888 52.6237 33.782 54.0194 35.7361C54.9429 37.0289 55.8201 39.6144 56.0971 40.5379C57.0051 37.1366 59.2921 27.924 60.6218 23.4547C61.9515 18.9854 62.7919 18.099 63.4844 17.4987C63.3921 18.2836 63.0227 19.7611 63.0689 23.8241C63.1148 27.8636 65.1158 33.1044 65.9314 35.2282C67.4397 34.628 70.4562 33.7046 72.3492 32.9197C73.7975 32.3192 76.9508 30.288 78.2128 29.4107C78.1205 29.6416 77.8896 30.1956 76.8739 31.4884C75.4699 33.2752 73.6882 34.0739 72.3492 34.6742L72.3492 34.6742C69.3019 35.967 66.624 37.0289 64.9619 37.6291C62.8738 38.3831 59.5599 40.584 58.775 41.3689C58.2579 41.886 56.7897 43.1696 55.6816 44.9241C55.5892 43.9083 55.3406 42.6681 54.9429 41.3689C53.5577 36.8442 49.7256 33.9816 48.1558 32.6889C46.2082 31.085 39.9836 27.1946 36.8902 23.5471C34.4154 20.6291 34.5662 17.5603 34.951 16.3906Z" fill="url(#paint4_linear_25_124)"/>
<path d="M16.4829 31.1818C13.7387 41.5241 10.8962 46.6028 4.06299 49.8809C7.0179 50.3426 11.3118 48.8946 13.528 46.926C18.0451 42.9134 19.2531 39.354 20.8229 34.1368C22.7684 27.6707 23.4426 23.8024 25.3938 18.3926C26.1325 16.3445 27.8408 14.3296 27.8408 14.3296C27.8408 14.3296 24.0548 15.2826 22.0695 17.2217C19.7298 19.5071 19.2069 20.9154 16.4829 31.1818Z" fill="url(#paint5_linear_25_124)"/>
<path d="M10.6654 19.6225C16.4367 18.6067 18.8222 14.8823 19.6687 13.2971C19.0684 13.0663 15.4671 12.7431 12.0043 13.5741C8.72624 14.3609 8.17219 15.0516 6.14068 15.8827C6.51005 15.3748 7.37521 14.4133 8.35691 13.7588C9.46496 13.0201 11.4965 11.5426 17.1755 11.0809C21.7187 10.7116 34.3971 15.0168 39.7991 15.2825C42.406 15.4107 51.6187 16.0858 56.9745 12.0967C62.3303 8.10755 63.6077 2.37009 63.5769 0L63.5707 0.00460866C63.3559 0.16588 61.5895 1.49171 59.0521 2.17002C54.3889 3.41662 50.5637 1.95066 43.2618 3.37045C39.9375 4.01684 36.9826 6.18685 35.9207 7.15644C38.4139 7.98751 44.1852 8.91092 47.7866 8.72624C51.3647 8.54275 54.8814 7.46424 56.1896 6.87941C55.7433 7.74126 53.5394 9.76046 48.2944 10.5731C41.7382 11.5888 32.2733 8.72624 28.1179 7.75666C23.9626 6.78707 14.7284 6.09452 9.41883 8.72624C4.10922 11.358 1.93919 15.3748 0.923442 17.6833C0.11084 19.5301 0 23.2238 0 23.2238C0 23.2238 1.42112 21.2495 10.6654 19.6225Z" fill="url(#paint6_linear_25_124)"/>
<path d="M38.4313 38.4606C44.7675 42.7259 46.9088 45.2995 47.7116 50.6496C48.6467 48.7304 48.9831 46.2173 47.756 43.5273C45.966 39.6033 43.791 38.0323 40.5606 35.8665C36.5571 33.1823 35.2619 32.3625 32.5677 29.6882C30.288 27.4254 28.9152 23.2487 28.874 23.2705C28.8328 23.2923 28.8761 25.847 29.2896 27.749C29.6751 29.5227 30.6039 33.1915 38.4313 38.4606Z" fill="url(#paint7_linear_25_124)"/>
<defs>
<linearGradient id="paint0_linear_25_124" x1="234.23" y1="30.299" x2="234.454" y2="-2.80696" gradientUnits="userSpaceOnUse">
<stop stop-color="#A70D09"/>
<stop offset="1" stop-color="#F0421B"/>
</linearGradient>
<linearGradient id="paint1_linear_25_124" x1="231.999" y1="68.0768" x2="232.385" y2="34.9739" gradientUnits="userSpaceOnUse">
<stop stop-color="#A70D09"/>
<stop offset="1" stop-color="#F0421B"/>
</linearGradient>
<linearGradient id="paint2_linear_25_124" x1="118.608" y1="54.9503" x2="118.637" y2="50.3395" gradientUnits="userSpaceOnUse">
<stop stop-color="#A70D09"/>
<stop offset="1" stop-color="#F0421B"/>
</linearGradient>
<linearGradient id="paint3_linear_25_124" x1="343.116" y1="54.9503" x2="343.145" y2="50.3395" gradientUnits="userSpaceOnUse">
<stop stop-color="#A70D09"/>
<stop offset="1" stop-color="#F0421B"/>
</linearGradient>
<linearGradient id="paint4_linear_25_124" x1="51.7499" y1="60.8505" x2="54.2146" y2="4.86099" gradientUnits="userSpaceOnUse">
<stop stop-color="#A70D09"/>
<stop offset="1" stop-color="#F0421B"/>
</linearGradient>
<linearGradient id="paint5_linear_25_124" x1="16.3329" y1="49.1613" x2="19.593" y2="11.3823" gradientUnits="userSpaceOnUse">
<stop stop-color="#A70D09"/>
<stop offset="1" stop-color="#F0421B"/>
</linearGradient>
<linearGradient id="paint6_linear_25_124" x1="32.8075" y1="22.6986" x2="33.3289" y2="-2.09301" gradientUnits="userSpaceOnUse">
<stop stop-color="#A70D09"/>
<stop offset="1" stop-color="#F0421B"/>
</linearGradient>
<linearGradient id="paint7_linear_25_124" x1="50.3731" y1="40.329" x2="24.4106" y2="30.2231" gradientUnits="userSpaceOnUse">
<stop stop-color="#A70D09"/>
<stop offset="1" stop-color="#F0421B"/>
</linearGradient>
</defs>
</svg>
