<svg xmlns="http://www.w3.org/2000/svg" viewBox="0 0 200 200" fill="none">
  <defs><linearGradient id="g" x1="0" y1="0" x2="1" y2="1"><stop offset="0%" stop-color="#BF6F00"/><stop offset="100%" stop-color="#D4AF37"/></linearGradient></defs>
  <circle cx="100" cy="100" r="90" fill="url(#g)" opacity="0.15"/>
  <path d="M100 40C90 60 70 85 60 100c-10 15-15 30-15 40 0 12 8 20 20 20s20-8 20-20c0-10-5-22-15-35-5-6-12-14-18-22" stroke="#BF6F00" stroke-width="3" fill="none" opacity="0.6"/>
  <path d="M100 40c10 20 30 45 40 60 10 15 15 30 15 40 0 12-8 20-20 20s-20-8-20-20c0-10 5-22 15-35 5-6 12-14 18-22" stroke="#D4AF37" stroke-width="3" fill="none" opacity="0.6"/>
  <circle cx="100" cy="38" r="6" fill="#BF6F00" opacity="0.8"/>
</svg>
