<svg xmlns="http://www.w3.org/2000/svg" viewBox="0 0 400 300" fill="none">
  <g stroke="#2F4F4F" stroke-width=".6" opacity=".6">
    <circle cx="80" cy="50" r="8"/>
    <circle cx="200" cy="40" r="10"/>
    <circle cx="320" cy="55" r="7"/>
    <circle cx="140" cy="120" r="9"/>
    <circle cx="260" cy="110" r="11"/>
    <circle cx="60" cy="190" r="8"/>
    <circle cx="180" cy="200" r="10"/>
    <circle cx="340" cy="180" r="9"/>
    <circle cx="100" cy="260" r="7"/>
    <circle cx="300" cy="250" r="8"/>
    <line x1="88" y1="50" x2="190" y2="40"/>
    <line x1="210" y1="40" x2="313" y2="55"/>
    <line x1="80" y1="58" x2="140" y2="112"/>
    <line x1="200" y1="50" x2="260" y2="100"/>
    <line x1="140" y1="128" x2="180" y2="192"/>
    <line x1="260" y1="120" x2="340" y2="172"/>
    <line x1="60" y1="198" x2="100" y2="252"/>
    <line x1="180" y1="208" x2="300" y2="242"/>
    <line x1="100" y1="60" x2="60" y2="182"/>
    <line x1="320" y1="64" x2="340" y2="172"/>
    <line x1="180" y1="200" x2="200" y2="40"/>
    <line x1="260" y1="110" x2="300" y2="250"/>
  </g>
  <g fill="#2F4F4F" opacity=".08">
    <circle cx="200" cy="145" r="45"/>
    <circle cx="120" cy="80" r="30"/>
    <circle cx="290" cy="75" r="25"/>
    <circle cx="80" cy="230" r="28"/>
    <circle cx="320" cy="225" r="22"/>
  </g>
</svg>
